<svg xmlns="http://www.w3.org/2000/svg" width="256" height="256" viewBox="0 0 100 100"><rect width="100" height="100" rx="20" fill="#09171f" style="--darkreader-inline-fill: var(--darkreader-background-09171f, #07131a);" data-darkreader-inline-fill=""></rect><path d="M72.02 84.32L66.92 25.78Q66.57 25.60 65.91 27.76Q65.25 29.91 64.20 33.29Q63.15 36.68 61.96 40.94Q60.77 45.20 59.37 49.42Q57.96 53.64 56.55 57.29Q55.15 60.94 53.74 63.05Q52.33 65.16 51.10 65.38Q49.87 65.59 48.91 62.87L48.91 62.87Q48.20 61.64 46.93 58.96Q45.65 56.28 43.98 52.94Q42.32 49.60 40.47 45.91Q38.62 42.22 37.00 38.92Q35.37 35.62 34.01 32.99Q32.65 30.35 32.03 29.12L32.03 29.12Q30.98 27.19 30.14 26Q29.31 24.81 27.55 24.81L27.55 24.81Q27.55 30.97 28.25 38.35Q28.96 45.73 29.79 53.29Q30.63 60.85 31.33 68.19Q32.03 75.53 32.03 81.77L32.03 81.77Q32.38 82.56 31.81 83.26Q31.24 83.96 30.23 84.32Q29.22 84.67 28.03 84.36Q26.85 84.05 26.06 82.91L26.06 82.91Q25.26 75.09 25.22 66.96Q25.18 58.83 25.09 50.65Q25.00 42.48 24.39 34.26Q23.77 26.04 21.92 17.87L21.92 17.87Q21.84 16.29 22.45 15.89Q23.07 15.50 24.03 15.50L24.03 15.50Q26.14 15.50 27.86 16.51Q29.57 17.52 30.98 19.06Q32.38 20.59 33.48 22.44Q34.58 24.29 35.46 25.78L35.46 25.78Q36.16 26.92 37.39 29.38L37.39 29.38L40.21 35.10Q41.79 38.26 43.50 41.73Q45.22 45.20 46.80 48.32Q48.38 51.44 49.70 53.86Q51.02 56.28 51.72 57.33L51.72 57.33Q52.07 57.33 52.33 57.07Q52.60 56.81 53.08 55.58Q53.57 54.34 54.40 51.80Q55.23 49.25 56.73 44.76Q58.22 40.28 60.42 33.43Q62.62 26.57 65.78 16.73L65.78 16.73Q65.96 16.29 66.92 15.94Q67.89 15.58 68.68 15.58L68.68 15.58Q69.47 15.58 69.78 16.11Q70.09 16.64 70.26 17.87L70.26 17.87Q71.06 25.34 71.54 33.47Q72.02 41.60 72.81 49.91Q73.60 58.21 74.79 66.39Q75.98 74.56 78.09 81.94L78.09 81.94L72.02 84.32Z" fill="#00a5bc" style="--darkreader-inline-fill: var(--darkreader-background-00a5bc, #008b9e);" data-darkreader-inline-fill=""></path></svg>